<?xml version="1.0" encoding="UTF-8" standalone="no"?>
<!-- Created with Inkscape (http://www.inkscape.org/) -->

<svg
   xmlns:dc="http://purl.org/dc/elements/1.1/"
   xmlns:cc="http://creativecommons.org/ns#"
   xmlns:rdf="http://www.w3.org/1999/02/22-rdf-syntax-ns#"
   xmlns:svg="http://www.w3.org/2000/svg"
   xmlns="http://www.w3.org/2000/svg"
   xmlns:xlink="http://www.w3.org/1999/xlink"
   xmlns:sodipodi="http://sodipodi.sourceforge.net/DTD/sodipodi-0.dtd"
   xmlns:inkscape="http://www.inkscape.org/namespaces/inkscape"
   width="521"
   height="239"
   id="svg2"
   version="1.1">
  <g
     inkscape:label="Layer 1"
     inkscape:groupmode="layer"
     id="layer1"
     transform="translate(-131.11348,-51.29066)">
    <path
       style="fill:#282625;fill-rule:nonzero;stroke:none"
       d="m 132.42352,289.77402 0,-37.58534 18.74655,0 0,6.34725 -11.56898,0 0,8.65367 9.07805,0 0,6.34726 -9.07805,0 0,16.23716"
       id="path18293" />
    <path
       style="fill:#282625;fill-rule:nonzero;stroke:none"
       d="m 161.3183,275.51115 7.12221,0 -3.4873,-15.20389 -0.11071,0 z m -10.25894,14.26287 9.31792,-37.58534 9.20721,0 9.0596,37.58534 -6.86389,0 -1.82668,-7.91562 -9.94527,0 -2.02964,7.91562"
       id="path18297" />
    <path
       style="fill:#282625;fill-rule:nonzero;stroke:none"
       d="m 182.9617,289.77402 0,-37.58534 10.03752,0 6.51332,24.66942 0.0923,0 6.51332,-24.66942 10.03752,0 0,37.58534 -6.12584,0 0,-29.55902 -0.11071,0 -7.6573,29.55902 -5.40623,0 -7.6573,-29.55902 -0.0923,0 0,29.55902"
       id="path18301" />
    <path
       id="path18303"
       d="m 223.42545,289.77402 7.19565,0 0,-37.58534 -7.19565,0 z"
       style="fill:#282625;fill-rule:nonzero;stroke:none" />
    <path
       style="fill:#282625;fill-rule:nonzero;stroke:none"
       d="m 237.48536,289.77402 0,-37.58534 7.17757,0 0,31.23809 11.56898,0 0,6.34725"
       id="path18307" />
    <path
       style="fill:#282625;fill-rule:nonzero;stroke:none"
       d="m 268.07766,267.33721 6.08893,-15.14853 7.6573,0 -10.25893,22.38145 0,15.20389 -7.17757,0 0,-15.20389 -10.25893,-22.38145 7.6573,0"
       id="path18311" />
    <path
       style="fill:#282625;fill-rule:nonzero;stroke:none"
       d="m 300.55199,289.77402 0,-37.58534 10.03752,0 6.51332,24.66942 0.0923,0 6.51332,-24.66942 10.05597,0 0,37.58534 -6.14429,0 0,-29.55902 -0.11071,0 -7.6573,29.55902 -5.40624,0 -7.65729,-29.55902 -0.0923,0 0,29.55902"
       id="path18315" />
    <path
       style="fill:#282625;fill-rule:nonzero;stroke:none"
       d="m 347.17848,278.62942 c 0,4.17 1.80823,5.31398 4.66819,5.31398 2.87841,0 4.68663,-1.14398 4.68663,-5.31398 l 0,-15.29614 c 0,-4.17 -1.80822,-5.31399 -4.68663,-5.31399 -2.85996,0 -4.66819,1.14399 -4.66819,5.31399 z m -7.19601,-14.35513 c 0,-9.26256 4.8896,-12.60225 11.8642,-12.60225 6.99305,0 11.88265,3.33969 11.88265,12.60225 l 0,13.43257 c 0,9.26256 -4.8896,12.5838 -11.88265,12.5838 -6.9746,0 -11.8642,-3.32124 -11.8642,-12.5838"
       id="path18319" />
    <path
       style="fill:#282625;fill-rule:nonzero;stroke:none"
       d="m 367.08746,252.18868 7.08531,0 6.60557,26.86512 0.11071,0 6.55022,-26.86512 7.02996,0 -9.57624,37.58534 -8.17394,0"
       id="path18323" />
    <path
       id="path18325"
       d="m 398.87909,289.77402 7.19565,0 0,-37.58534 -7.19565,0 z"
       style="fill:#282625;fill-rule:nonzero;stroke:none" />
    <path
       style="fill:#282625;fill-rule:nonzero;stroke:none"
       d="m 412.939,289.77402 0,-37.58534 19.66911,0 0,6.34725 -12.49154,0 0,8.65367 9.52088,0 0,6.34726 -9.52088,0 0,9.88991 13.00818,0 0,6.34725"
       id="path18329" />
    <path
       style="fill:#282625;fill-rule:nonzero;stroke:none"
       d="m 459.97143,278.62942 c 0,4.17 1.82668,5.31398 4.68663,5.31398 2.85996,0 4.68664,-1.14398 4.68664,-5.31398 l 0,-2.49093 7.17756,0 0,1.56837 c 0,9.26256 -4.8896,12.5838 -11.8642,12.5838 -6.9746,0 -11.88265,-3.32124 -11.88265,-12.5838 l 0,-13.43257 c 0,-9.26256 4.90805,-12.60225 11.88265,-12.60225 6.9746,0 11.8642,3.33969 11.8642,12.60225 l 0,0.0923 -7.17756,0 0,-1.03327 c 0,-4.17 -1.82668,-5.31399 -4.68664,-5.31399 -2.85995,0 -4.68663,1.14399 -4.68663,5.31399"
       id="path18333" />
    <path
       style="fill:#282625;fill-rule:nonzero;stroke:none"
       d="m 482.75881,289.77402 0,-37.58534 7.17757,0 0,15.00092 10.14823,0 0,-15.00092 7.19601,0 0,37.58534 -7.19601,0 0,-16.23716 -10.14823,0 0,16.23716"
       id="path18337" />
    <path
       style="fill:#282625;fill-rule:nonzero;stroke:none"
       d="m 521.83872,275.51115 7.12221,0 -3.4873,-15.20389 -0.0923,0 z m -10.25894,14.26287 9.31792,-37.58534 9.20721,0 9.0596,37.58534 -6.86389,0 -1.82668,-7.91562 -9.94527,0 -2.02964,7.91562"
       id="path18341" />
    <path
       style="fill:#282625;fill-rule:nonzero;stroke:none"
       d="m 543.48212,289.77402 0,-37.58534 7.86026,0 9.98217,22.2892 0.11071,0 0,-22.2892 6.55022,0 0,37.58534 -6.86389,0 -10.97854,-24.26349 -0.11071,0 0,24.26349"
       id="path18345" />
    <path
       style="fill:#282625;fill-rule:nonzero;stroke:none"
       d="m 575.27375,289.77402 0,-37.58534 7.86026,0 9.98217,22.2892 0.11071,0 0,-22.2892 6.55022,0 0,37.58534 -6.86389,0 -10.97854,-24.26349 -0.11071,0 0,24.26349"
       id="path18349" />
    <path
       style="fill:#282625;fill-rule:nonzero;stroke:none"
       d="m 606.641,289.77402 0,-37.58534 19.66911,0 0,6.34725 -12.49154,0 0,8.65367 9.53933,0 0,6.34726 -9.53933,0 0,9.88991 13.00818,0 0,6.34725"
       id="path18353" />
    <path
       style="fill:#282625;fill-rule:nonzero;stroke:none"
       d="m 632.65737,289.77402 0,-37.58534 7.17756,0 0,31.23809 11.56898,0 0,6.34725"
       id="path18357" />
    <path
       style="fill:#8e2d75;fill-rule:nonzero;stroke:none"
       d="m 650.99798,87.65822 -6.56867,-7.251371 C 627.63861,61.900171 603.61498,51.29066 578.52118,51.29066 c -49.41264,0 -89.59963,40.113178 -89.59963,89.41512 0,48.56388 41.03575,89.59963 89.59963,89.59963 25.11226,0 49.13588,-10.60952 65.90813,-29.11619 l 6.40261,-7.04841 c 2.87841,-2.89686 -0.77495,-5.70146 -0.77495,-5.70146 l -7.73111,-5.31398 -30.7399,-21.21902 c 0,0.0185 -2.84151,-1.93739 -4.74199,-3.26589 -3.59801,-2.56473 -5.70146,0.27677 -5.70146,0.27677 l -4.40987,3.87478 c -4.74199,4.15155 -11.36601,6.55022 -18.21146,6.55022 -15.94194,0 -28.43349,-12.5838 -28.43349,-28.63645 0,-15.68363 12.74987,-28.43349 28.43349,-28.43349 6.84545,0 13.46947,2.38022 18.21146,6.55022 l 4.44677,3.91168 c 0,0 2.43557,2.69389 5.95978,0.0185 l 4.44677,-3.06292 30.7399,-21.200573 c 0,0 5.73836,-3.948584 8.57987,-5.904424 2.65699,-2.158805 0.0923,-4.926503 0.0923,-4.926503"
       id="path18361" />
    <path
       style="fill:#8e2d75;fill-rule:nonzero;stroke:none"
       d="m 131.11348,222.48204 c 0,2.25107 1.82668,4.07775 4.07774,4.07775 l 53.01066,0 c 2.25106,0 4.07774,-1.82668 4.07774,-4.07775 l 0,-28.76561 c 0,-2.25106 1.84513,-4.07774 4.09619,-4.07774 l 77.62472,0 c 2.23261,0 4.07775,-1.84514 4.07775,-4.07775 l 0,-53.0291 c 0,-2.23261 -1.84514,-4.07774 -4.07775,-4.07774 l -77.62472,0 c -2.25106,0 -4.09619,-1.84514 -4.09619,-4.07775 l 0,-4.2807 c 0,-2.25106 1.84513,-4.0962 4.09619,-4.0962 l 77.66163,0 c 2.25106,0 4.07774,-1.82668 4.07774,-4.07774 l 0,-52.807689 c 0,-2.251061 -1.82668,-4.077742 -4.07774,-4.077742 l -138.84622,0 c -2.25106,0 -4.07774,1.826681 -4.07774,4.077742 z M 455.22944,56.567739 c -0.84876,0.719601 -2.97067,2.50938 -4.66819,3.967034 L 390.79741,111.0176 c -1.69752,1.45765 -4.52057,1.45765 -6.23654,0 L 324.61251,60.516322 c -1.71597,-1.457655 -3.81942,-3.228982 -4.66818,-3.948583 -0.86721,-0.719602 -3.4135,-1.310044 -5.64611,-1.310044 l -8.59831,0 c -2.23261,0 -4.07775,1.826681 -4.07775,4.077742 l 0,163.146603 c 0,2.25107 1.84514,4.07775 4.07775,4.07775 l 53.01065,0 c 2.25106,0 4.07774,-1.82668 4.07774,-4.07775 l 0,-45.88844 c 0,-2.23261 1.4023,-2.89686 3.11828,-1.4392 l 10.88628,9.15185 c 1.71597,1.45766 4.52057,3.81943 6.23655,5.25863 l 1.54991,1.31005 c 1.71597,1.45765 4.52057,1.45765 6.23654,0 l 1.54992,-1.31005 c 1.71597,-1.4392 4.53902,-3.80097 6.25499,-5.25863 l 10.84938,-9.15185 c 1.73443,-1.45766 3.13673,-0.79341 3.13673,1.4392 l 0,45.88844 c 0,2.25107 1.82668,4.07775 4.07774,4.07775 l 52.80769,0 c 2.23261,0 4.07774,-1.82668 4.07774,-4.07775 l 0,-163.146603 c 0,-2.251061 -1.84513,-4.077742 -4.07774,-4.077742 l -8.61677,0 c -2.25106,0 -4.77889,0.590442 -5.6461,1.310044"
       id="path18365" />
  </g>
</svg>
